# xmcd
#
# Track frame offsets:
#	150
#	32758
#	62521
#	95494
#	124744
#	152695
#	190764
#	222843
#	254229
#
# Disc length: 3777 seconds
#
# Revision: 1
# Processed by: cddbd v1.5.1PL0 Copyright (c) Steve Scherf et al.
# Submitted via: audiograbber 1.80
#
DISCID=7c0ebf09
DTITLE=Various Artist - Ketuh Records - Hyperspatial Chrysalis
DYEAR=1900
DGENRE=
TTITLE0=Psychoactive - Crazy Cabby
TTITLE1=Hefty Output - WTF rmx
TTITLE2=Psychophat - Life and Death rmx
TTITLE3=Sun Girl vs Iron Madness - Buddhist Pryamidi
TTITLE4=Pondscum - Style Stalker
TTITLE5=Paranoize - Deception
TTITLE6=Phonic Request vs Akhoa - Call 1334 rmx
TTITLE7=Psyboriginal - Spirited Away rmx
TTITLE8=Killer Buds - Biogenese
EXTD=
EXTT0=
EXTT1=
EXTT2=
EXTT3=
EXTT4=
EXTT5=
EXTT6=
EXTT7=
EXTT8=
PLAYORDER=
